<svg width="56" height="56" viewBox="0 0 56 56" fill="none" xmlns="http://www.w3.org/2000/svg">
<path d="M27.9974 51.3307C40.884 51.3307 51.3307 40.884 51.3307 27.9974C51.3307 15.1108 40.884 4.66406 27.9974 4.66406C15.1108 4.66406 4.66406 15.1108 4.66406 27.9974C4.66406 40.884 15.1108 51.3307 27.9974 51.3307Z" fill="url(#paint0_linear_463_395)"/>
<path d="M27.9988 48.818C39.497 48.818 48.818 39.4969 48.818 27.9988C48.818 16.5007 39.497 7.17969 27.9988 7.17969C16.5007 7.17969 7.17969 16.5007 7.17969 27.9988C7.17969 39.4969 16.5007 48.818 27.9988 48.818Z" fill="url(#paint1_linear_463_395)"/>
<path d="M13.707 30.1112C13.707 33.1547 16.1771 35.6468 19.2426 35.6468C22.2861 35.6468 24.7562 33.1767 24.7562 30.1333C24.7562 27.0898 22.2861 24.5977 19.2206 24.5977C16.1771 24.5977 13.707 27.0677 13.707 30.1112ZM16.8608 30.1333C16.8608 29.7142 17.1916 29.3614 17.6327 29.3393C17.8532 29.3393 18.0738 29.3393 18.2943 29.3393C18.4046 29.3393 18.4487 29.3173 18.4487 29.1849C18.4487 28.9644 18.4487 28.7659 18.4487 28.5454C18.4487 28.0822 18.8015 27.7293 19.2426 27.7514C19.6617 27.7514 20.0145 28.1043 20.0145 28.5454C20.0145 28.788 19.9263 29.1408 20.0586 29.2731C20.213 29.4275 20.5438 29.3173 20.8085 29.3173C21.2496 29.3393 21.6024 29.6701 21.6024 30.1112C21.6024 30.5302 21.2496 30.8831 20.8085 30.9052C20.5659 30.9052 20.213 30.8169 20.0807 30.9493C19.9043 31.1036 20.0366 31.4345 20.0366 31.6991C20.0145 32.1402 19.6837 32.4931 19.2426 32.4931C18.8236 32.4931 18.4707 32.1622 18.4487 31.7212C18.4487 31.5227 18.4266 31.3242 18.4487 31.1477C18.4707 30.9493 18.3825 30.9052 18.2061 30.9272C18.0076 30.9493 17.8312 30.9272 17.6327 30.9272C17.1916 30.8831 16.8608 30.5302 16.8608 30.1333Z" fill="url(#paint2_linear_463_395)"/>
<path d="M28.103 13.4361C27.6619 13.5464 27.2208 13.5905 26.8018 13.7449C24.1553 14.627 22.3909 17.2074 22.5894 19.9421C22.81 22.7871 24.861 25.0587 27.6398 25.5439C31.4993 26.2275 35.028 23.0959 34.7854 19.1702C34.6089 16.2811 32.4035 13.8993 29.5365 13.4802C29.4703 13.4802 29.4042 13.5023 29.3821 13.4141C28.9631 13.4361 28.544 13.4361 28.103 13.4361Z" fill="url(#paint3_linear_463_395)"/>
<path d="M25.3522 26.4723C26.7637 29.207 26.7637 31.8755 24.9111 34.3456C22.8822 37.0362 20.1033 37.742 16.8614 36.8598C16.8614 37.7861 16.8393 38.7344 16.8614 39.6607C16.8614 40.0576 17.2142 40.3444 17.6112 40.3885C17.6774 40.3885 17.7435 40.3885 17.8317 40.3885C25.0876 40.3885 32.3214 40.3885 39.5772 40.3885C40.2609 40.3885 40.5476 40.1018 40.5476 39.4181C40.5255 38.2933 40.5917 37.1465 40.5035 36.0217C40.327 33.7501 39.5551 31.7212 38.1878 29.8907C36.8645 28.1263 35.2104 26.8251 33.1594 25.9871C33.0491 25.943 32.9609 25.9209 32.8507 25.9871C30.4688 27.4426 27.9987 27.6191 25.4404 26.4943C25.4184 26.4723 25.3963 26.4723 25.3522 26.4723Z" fill="url(#paint4_linear_463_395)"/>
<path d="M28.103 13.4361C27.6619 13.5464 27.2208 13.5905 26.8018 13.7449C24.1553 14.627 22.3909 17.2074 22.5894 19.9421C22.81 22.7871 24.861 25.0587 27.6398 25.5439C31.4993 26.2275 35.028 23.0959 34.7854 19.1702C34.6089 16.2811 32.4035 13.8993 29.5365 13.4802C29.4703 13.4802 29.4042 13.5023 29.3821 13.4141C28.9631 13.4361 28.544 13.4361 28.103 13.4361Z" fill="url(#paint5_linear_463_395)"/>
<path d="M25.3522 26.4723C26.7637 29.207 26.7637 31.8755 24.9111 34.3456C22.8822 37.0362 20.1033 37.742 16.8614 36.8598C16.8614 37.7861 16.8393 38.7344 16.8614 39.6607C16.8614 40.0576 17.2142 40.3444 17.6112 40.3885C17.6774 40.3885 17.7435 40.3885 17.8317 40.3885C25.0876 40.3885 32.3214 40.3885 39.5772 40.3885C40.2609 40.3885 40.5476 40.1018 40.5476 39.4181C40.5255 38.2933 40.5917 37.1465 40.5035 36.0217C40.327 33.7501 39.5551 31.7212 38.1878 29.8907C36.8645 28.1263 35.2104 26.8251 33.1594 25.9871C33.0491 25.943 32.9609 25.9209 32.8507 25.9871C30.4688 27.4426 27.9987 27.6191 25.4404 26.4943C25.4184 26.4723 25.3963 26.4723 25.3522 26.4723Z" fill="url(#paint6_linear_463_395)"/>
<path d="M28.7109 13.4414C28.9315 13.4414 29.1741 13.4414 29.3946 13.4414C29.4167 13.5296 29.5049 13.4855 29.549 13.5076C32.416 13.9266 34.6215 16.3085 34.7979 19.1976C35.0184 22.7703 32.1293 25.6815 28.7109 25.6594V13.4414Z" fill="url(#paint7_linear_463_395)"/>
<path d="M28.7109 27.2221C30.1224 27.2221 31.5118 26.8251 32.8571 25.9871C32.9674 25.9209 33.0556 25.943 33.1659 25.9871C35.1949 26.8251 36.871 28.1263 38.1942 29.8907C39.5616 31.6991 40.3335 33.7501 40.5099 36.0217C40.5981 37.1465 40.532 38.2713 40.554 39.4181C40.554 40.1018 40.2673 40.3885 39.5837 40.3885C35.9668 40.3885 32.3278 40.3885 28.7109 40.3885V27.2221Z" fill="url(#paint8_linear_463_395)"/>
<defs>
<linearGradient id="paint0_linear_463_395" x1="28.0023" y1="4.67132" x2="28.0023" y2="97.584" gradientUnits="userSpaceOnUse">
<stop stop-color="#5FB1D4"/>
<stop offset="0.1315" stop-color="#699FD8"/>
<stop offset="0.3938" stop-color="#8272E3"/>
<stop offset="0.7591" stop-color="#AA29F5"/>
<stop offset="0.9507" stop-color="#C000FF"/>
</linearGradient>
<linearGradient id="paint1_linear_463_395" x1="28.0038" y1="7.18322" x2="28.0038" y2="90.1003" gradientUnits="userSpaceOnUse">
<stop stop-color="white"/>
<stop offset="0.8703" stop-color="#A7F5FF"/>
</linearGradient>
<linearGradient id="paint2_linear_463_395" x1="14.6129" y1="20.6292" x2="22.9693" y2="37.8034" gradientUnits="userSpaceOnUse">
<stop offset="0.046925" stop-color="#C000FF"/>
<stop offset="1" stop-color="#5FB1D4"/>
</linearGradient>
<linearGradient id="paint3_linear_463_395" x1="28.6421" y1="13.4289" x2="28.7874" y2="31.9092" gradientUnits="userSpaceOnUse">
<stop offset="0.046925" stop-color="#C000FF"/>
<stop offset="1" stop-color="#5FB1D4"/>
</linearGradient>
<linearGradient id="paint4_linear_463_395" x1="28.8905" y1="16.0749" x2="28.6835" y2="39.7546" gradientUnits="userSpaceOnUse">
<stop offset="0.046925" stop-color="#C000FF"/>
<stop offset="1" stop-color="#5FB1D4"/>
</linearGradient>
<linearGradient id="paint5_linear_463_395" x1="28.6421" y1="13.4289" x2="28.7874" y2="31.9092" gradientUnits="userSpaceOnUse">
<stop offset="0.046925" stop-color="#C000FF"/>
<stop offset="1" stop-color="#5FB1D4"/>
</linearGradient>
<linearGradient id="paint6_linear_463_395" x1="28.8905" y1="16.0749" x2="28.6835" y2="39.7546" gradientUnits="userSpaceOnUse">
<stop offset="0.046925" stop-color="#C000FF"/>
<stop offset="1" stop-color="#5FB1D4"/>
</linearGradient>
<linearGradient id="paint7_linear_463_395" x1="34.4688" y1="6.28573" x2="26.7979" y2="36.2253" gradientUnits="userSpaceOnUse">
<stop stop-color="#C000FF"/>
<stop offset="0.9461" stop-color="#5FB1D4"/>
</linearGradient>
<linearGradient id="paint8_linear_463_395" x1="40.287" y1="14.9806" x2="32.8506" y2="39.2107" gradientUnits="userSpaceOnUse">
<stop stop-color="#C000FF"/>
<stop offset="0.9718" stop-color="#5FB1D4"/>
</linearGradient>
</defs>
</svg>
